<svg width="48px" height="48px" viewBox="0 0 54 54" version="1.1" xmlns="http://www.w3.org/2000/svg" xmlns:xlink="http://www.w3.org/1999/xlink">
    <g id="Page-1" stroke="none" stroke-width="1" fill="none" fill-rule="evenodd">
        <g id="users" fill="#4990E2">
            <g id="Page-1">
                <g id="product">
                    <g id="Group-9">
                        <g id="users">
                            <g id="Shape_76">
                                <path d="M24.46875,37.125 C31.4499375,37.125 37.125,30.216375 37.125,21.7265625 C37.125,13.2350625 31.4499375,6.328125 24.46875,6.328125 C21.016125,6.328125 17.793,7.9801875 15.393375,10.9771875 C13.0831875,13.8661875 11.8108125,17.6833125 11.8125,21.7265625 C11.8125,30.2180625 17.48925,37.125 24.46875,37.125 L24.46875,37.125 L24.46875,37.125 Z M24.46875,9.703125 C29.58525,9.703125 33.75,15.096375 33.75,21.7265625 C33.75,28.3584375 29.58525,33.75 24.46875,33.75 C19.35225,33.75 15.1875,28.3584375 15.184125,21.7265625 C15.184125,15.096375 19.348875,9.703125 24.46875,9.703125 L24.46875,9.703125 L24.46875,9.703125 Z M35.0983125,35.4375 C34.165125,35.4375 33.4108125,36.1918125 33.4108125,37.125 C33.4108125,38.0581875 34.165125,38.8125 35.0983125,38.8125 C40.867875,38.8125 45.5625,43.507125 45.5625,49.278375 C45.5625,50.0191875 44.9566875,50.625 44.2108125,50.625 L4.7233125,50.625 C3.9808125,50.625 3.375,50.0225625 3.375,49.278375 C3.375,43.507125 8.0679375,38.8125 13.8358125,38.8125 C14.769,38.8125 15.5233125,38.0581875 15.5233125,37.125 C15.5233125,36.1918125 14.769,35.4375 13.8358125,35.4375 C6.206625,35.4375 0,41.6475 0,49.278375 C0,51.8821875 2.1195,54 4.7233125,54 L44.2108125,54 C46.8163125,54 48.9375,51.8821875 48.9375,49.278375 C48.9375,41.6475 42.7275,35.4375 35.0983125,35.4375 L35.0983125,35.4375 L35.0983125,35.4375 Z M25.7023125,4.4533125 C26.9105625,3.7378125 28.198125,3.3766875 29.53125,3.3766875 C34.64775,3.3766875 38.8125,8.7699375 38.8125,15.3984375 C38.8125,16.588125 38.680875,17.7541875 38.421,18.869625 C38.2066875,19.7775 38.7703125,20.685375 39.6765,20.898 C39.8064375,20.9300625 39.9346875,20.941875 40.0629375,20.941875 C40.8290625,20.941875 41.5209375,20.4170625 41.704875,19.6408125 C42.022125,18.27225 42.1875,16.8463125 42.1875,15.3984375 C42.1875,6.908625 36.5124375,0 29.53125,0 C27.6125625,0 25.69725,0.5349375 23.986125,1.5474375 C23.182875,2.021625 22.9179375,3.05775 23.392125,3.8593125 C23.8663125,4.660875 24.904125,4.9275 25.7023125,4.4533125 L25.7023125,4.4533125 L25.7023125,4.4533125 Z M40.5,28.6875 C39.5668125,28.6875 38.8125,29.4418125 38.8125,30.375 C38.8125,31.3081875 39.5668125,32.0625 40.5,32.0625 C46.2695625,32.0625 50.625,36.871875 50.625,42.63975 C50.625,42.8304375 50.5895625,43.021125 50.51025,43.189875 C50.13225,44.04375 50.517,45.039375 51.3675,45.417375 C51.586875,45.5169375 51.8214375,45.5625 52.052625,45.5625 C52.6989375,45.5625 53.314875,45.1861875 53.595,44.560125 C53.8633125,43.9543125 54,43.308 54,42.6346875 C54,35.0105625 48.1291875,28.6875 40.5,28.6875 L40.5,28.6875 L40.5,28.6875 Z" id="Shape"></path>
                            </g>
                        </g>
                    </g>
                </g>
            </g>
        </g>
    </g>
</svg>
